<svg xmlns="http://www.w3.org/2000/svg" viewBox="0 0 1537 380" width="1537" height="380">
	<style>
		tspan { white-space:pre }
		.shp0 { fill: #478aed } 
	</style>
	<path id="形状 1" class="shp0" d="M317,190.5c0,-87.65 -70.85,-158.5 -158.5,-158.5c-87.65,0 -158.5,70.85 -158.5,158.5c0,87.65 70.85,158.5 158.5,158.5c87.65,0 158.5,-70.85 158.5,-158.5z" />
	<path id="R " fill="#ffffff" d="M194.79 125.15L217.43 125.15C241.49 125.15 254.22 131.66 254.22 151.47C254.22 171.28 241.49 181.75 217.43 181.75L194.79 181.75ZM314.5 295.8L267.53 212.31C289.32 202.13 303.75 182.32 303.75 151.47C303.75 100.53 266.39 85.25 221.4 85.25L144.14 85.25L144.14 295.8L194.79 295.8L194.79 221.65L219.13 221.65L257.9 295.8Z" />
	<path id="ua " fill="#000000" d="M383.77 299.4C405.84 299.4 420.84 289.21 434.14 273.37L435.27 273.37L438.95 295.44L479.99 295.44L479.99 134.41L429.62 134.41L429.62 239.97C421.13 251.86 414.05 256.38 402.73 256.38C390 256.38 384.05 250.16 384.05 227.8L384.05 134.41L333.68 134.41L333.68 234.03C333.68 274.21 348.68 299.4 383.77 299.4ZM561.21 299.4C579.04 299.4 594.04 291.19 607.34 279.31L608.47 279.31L612.15 295.44L653.18 295.44L653.18 204.03C653.18 153.66 629.7 130.45 588.1 130.45C562.91 130.45 539.99 138.94 518.76 151.68L536.31 184.79C552.44 175.73 565.74 170.64 578.47 170.64C594.89 170.64 601.68 178.28 602.81 191.3C539.99 198.09 513.38 216.48 513.38 250.44C513.38 277.33 531.5 299.4 561.21 299.4ZM578.47 260.35C568 260.35 561.21 255.82 561.21 246.48C561.21 235.16 571.4 226.1 602.81 221.86L602.81 247.61C595.45 255.54 588.66 260.35 578.47 260.35Z" />
</svg>