<svg xmlns="http://www.w3.org/2000/svg" viewBox="0 0 1537 380" width="1537" height="380">
	<style>
		tspan { white-space:pre }
		.shp0 { fill: #478aed } 
	</style>
	<path id="形状 1" class="shp0" d="M317,190.5c0,-87.65 -70.85,-158.5 -158.5,-158.5c-87.65,0 -158.5,70.85 -158.5,158.5c0,87.65 70.85,158.5 158.5,158.5c87.65,0 158.5,-70.85 158.5,-158.5z" />
	<path id="R " fill="#ffffff" d="M258.91 212.11Q256.08 212.96 256.08 215.5Q256.08 216.07 256.64 217.77Q277.3 250.59 290.04 262.48Q291.73 264.18 291.73 265.88Q291.73 267.86 290.32 269.27Q273.62 284.84 267.4 284.84Q262.59 284.84 260.6 282.86Q249.85 273.52 240.23 255.69Q230.32 237.86 225.23 222.58Q223.53 217.77 219.57 217.77L215.32 217.77Q210.51 217.77 209.66 221.73Q203.44 260.78 201.46 281.16Q200.89 285.4 196.65 285.4Q192.4 285.4 184.19 283.14Q175.99 281.16 173.16 279.74Q169.2 277.76 169.2 272.95Q169.76 248.9 177.69 204.75Q185.61 160.6 194.38 127.77Q195.23 124.66 195.23 122.11Q195.23 121.26 194.38 116.45Q193.25 111.92 193.25 110.79Q193.25 107.4 196.93 105.7Q221.55 95.51 249.28 95.51Q266.55 95.51 281.26 106.26Q295.98 117.3 303.62 131.17Q310.98 145.32 310.98 157.49Q310.98 175.6 296.55 190.32Q281.83 205.03 258.91 212.11ZM235.98 125.51Q230.89 126.36 229.47 130.89Q222.97 156.92 217.02 185.5Q216.74 186.64 216.74 187.49Q216.74 190.6 221.27 190.6Q244.76 190.6 260.6 177.86Q276.45 165.13 276.45 148.15Q276.45 136.26 267.96 130.6Q259.19 124.94 245.89 124.94Q239.95 124.94 235.98 125.51Z" />
	<path id="ua " fill="#000000" d="M444.35 149.36Q447.46 150.77 447.46 154.73L447.18 156.71Q438.97 183.6 433.31 220.67Q427.65 257.74 426.52 280.95Q426.52 285.48 422.28 285.48Q412.94 285.48 403.03 280.95Q398.5 278.97 397.94 273.31L397.09 256.61Q397.09 254.35 395.96 254.35L394.26 255.76Q385.49 269.35 375.86 277.55Q366.24 285.76 358.6 285.76Q346.15 285.76 333.98 271.89Q321.81 258.03 321.81 240.48Q321.81 217.84 328.04 191.24Q334.26 164.64 341.06 147.09Q342.75 142.85 346.71 142.85Q349.26 142.85 358.32 146.53Q367.09 150.2 369.92 152.19Q372.75 154.17 372.75 157.56L372.47 159.54Q367.09 174.54 360.87 203.41Q354.64 232.27 354.64 245.29Q354.64 252.65 356.9 252.65Q363.41 252.65 374.17 244.73Q384.92 237.09 394.54 226.05Q397.09 222.65 398.22 217.56Q405.01 173.98 414.35 146.81Q415.48 142.56 420.58 142.56Q422.56 142.56 431.33 144.83Q439.82 147.37 444.35 149.36ZM532.93 280.67Q527.84 278.69 527.27 273.59L526.7 259.44Q526.7 257.18 525.57 257.18Q524.72 257.18 523.87 258.59Q505.48 285.76 492.18 285.76Q477.18 285.76 464.44 269.35Q451.71 253.22 451.71 235.39Q451.71 211.62 458.5 190.39Q465.29 169.45 479.44 155.3Q493.31 141.43 511.7 141.43Q521.04 141.43 538.02 147.94Q554.72 154.73 570.28 164.92Q573.4 166.62 573.4 170.86L573.12 172.56Q566.04 198.88 562.08 229.73Q557.83 260.57 557.27 280.95Q556.7 285.48 552.46 285.48Q551.04 285.48 543.4 283.5Q535.48 281.52 532.93 280.67ZM522.46 233.12Q525.85 230.01 526.42 225.77L534.91 179.92Q534.91 176.52 531.51 175.11Q523.59 171.71 518.78 171.71Q508.59 171.71 500.67 183.6Q492.46 195.77 488.78 210.48Q485.1 225.2 485.1 237.65Q485.1 253.22 489.91 253.22Q500.67 253.22 522.46 233.12Z" />
</svg>